<?xml version="1.0" encoding="iso-8859-1"?>
<!-- Uploaded to: SVG Repo, www.svgrepo.com, Generator: SVG Repo Mixer Tools -->
<svg height="800px" width="800px" version="1.1" id="Capa_1" xmlns="http://www.w3.org/2000/svg" xmlns:xlink="http://www.w3.org/1999/xlink" 
	 viewBox="0 0 460 460" xml:space="preserve">
<g>
	<path style="fill:#EAEBED;" d="M437.109,207.11C437.109,92.726,344.386,0,230.001,0S22.891,92.726,22.891,207.11
		c0,114.376,92.725,207.101,207.11,207.101S437.109,321.486,437.109,207.11z"/>
	<path style="fill:#DCDEE0;" d="M332.631,125.537h-66.296v260.557c-0.01,0.336-0.026,0.671-0.026,1.009l0.024,39.953
		c0,18.194,14.804,32.943,33.067,32.943c18.262,0,33.066-14.749,33.181-32.943v-39.953c0-0.01-0.001-0.02-0.001-0.03
		c0.017-0.009,0.034-0.019,0.051-0.028V125.537z"/>
	<path style="fill:#DCDEE0;" d="M193.667,387.094V125.537h-66.295l0.024,261.508l0.001,0.001c0,0.019-0.001,0.038-0.001,0.058
		l0.024,39.953c0,18.194,14.804,32.943,33.067,32.943c18.262,0,33.066-14.749,33.181-32.943v-39.953
		C193.667,387.101,193.667,387.097,193.667,387.094z"/>
	<polygon style="fill:#EA7053;" points="127.372,172.696 127.372,183.964 160.52,218.377 193.667,183.964 193.667,172.696 
		160.52,207.11 	"/>
	<polygon style="opacity:0.27;fill:#EA7053;" points="127.372,229.665 127.372,240.934 160.52,275.347 193.667,240.934 
		193.667,229.665 160.52,264.08 	"/>
	<polygon style="fill:#EA7053;" points="266.335,172.696 266.335,183.964 299.483,218.377 332.631,183.964 332.631,172.696 
		299.483,207.11 	"/>
	<polygon style="opacity:0.27;fill:#EA7053;" points="266.335,229.665 266.335,240.934 299.483,275.347 332.631,240.934 
		332.631,229.665 299.483,264.08 	"/>
	<path style="fill:#EA7053;" d="M160.52,264.08l33.146-34.414V60.149c-23.742,4.202-46.084,12.449-66.295,24.002v145.514
		L160.52,264.08z"/>
	<path style="fill:#EA7053;" d="M299.483,264.08l33.147-34.414V84.152c-20.21-11.553-42.553-19.8-66.296-24.002v169.516
		L299.483,264.08z"/>
	<path style="fill:#757E86;" d="M65.99,388.901c-3.666,0-6.64,2.972-6.64,6.64c0,3.662,2.974,6.636,6.64,6.636h7.495v12.034h7.059
		v-12.034h7.495c3.666,0,6.64-2.974,6.64-6.636c0-3.667-2.974-6.64-6.64-6.64h-3.965V60.149c-4.96,4.926-9.675,10.099-14.12,15.504
		v313.247H65.99z"/>
	<path style="fill:#757E86;" d="M371.962,388.901c-3.665,0-6.638,2.972-6.638,6.64c0,3.662,2.972,6.636,6.638,6.636h7.497v12.034
		h7.06v-12.034h7.494c3.664,0,6.638-2.974,6.638-6.636c0-3.667-2.973-6.64-6.638-6.64h-3.966V75.656
		c-4.444-5.406-9.161-10.58-14.12-15.505v328.749H371.962z"/>
	<polygon style="fill:#00B5AE;" points="266.335,202.043 332.631,181.888 332.631,147.007 266.335,167.161 	"/>
	<polygon style="fill:#00B5AE;" points="332.631,99.198 266.335,119.352 266.335,154.234 332.631,134.079 	"/>
	<polygon style="fill:#00B5AE;" points="127.372,202.043 193.667,181.888 193.667,147.007 127.372,167.161 	"/>
	<polygon style="fill:#00B5AE;" points="127.372,119.352 127.372,154.234 193.667,134.079 193.667,99.198 	"/>
	<path style="fill:#EA7053;" d="M332.631,97.167V27.182c-20.21-11.553-42.554-19.8-66.296-24.002v93.986H332.631z"/>
	<path style="fill:#EA7053;" d="M193.667,84.152V3.18c-23.741,4.201-46.084,12.448-66.295,24.001v56.97H193.667z"/>
</g>
</svg>