<?xml version="1.0" encoding="UTF-8" standalone="no"?><!DOCTYPE svg PUBLIC "-//W3C//DTD SVG 1.1//EN" "http://www.w3.org/Graphics/SVG/1.1/DTD/svg11.dtd"><svg width="100%" height="100%" viewBox="0 0 3334 3334" version="1.1" xmlns="http://www.w3.org/2000/svg" xmlns:xlink="http://www.w3.org/1999/xlink" xml:space="preserve" xmlns:serif="http://www.serif.com/" style="fill-rule:evenodd;clip-rule:evenodd;stroke-linejoin:round;stroke-miterlimit:2;"><path d="M446.667,1786.67l-313.334,-0c-40,-0 -66.666,-26.667 -66.666,-66.667l-0,-420c-0,-40 26.666,-66.667 66.666,-66.667l313.334,0l-0,553.334Z" style="fill:#dd5b59;fill-rule:nonzero;"/><path d="M513.333,1853.33l-380,0c-73.333,0 -133.333,-60 -133.333,-133.333l0,-420c0,-73.333 60,-133.333 133.333,-133.333l380,-0l0,686.666Zm-380,-553.333l0,420l246.667,0l0,-420l-246.667,0Z" style="fill:#3e4550;fill-rule:nonzero;"/><path d="M2886.67,1786.67l313.333,-0c40,-0 66.667,-26.667 66.667,-66.667l-0,-420c-0,-40 -26.667,-66.667 -66.667,-66.667l-313.333,0l-0,553.334Z" style="fill:#dd5b59;fill-rule:nonzero;"/><path d="M3200,1853.33l-380,0l0,-686.666l380,-0c73.333,-0 133.333,60 133.333,133.333l0,420c0,73.333 -60,133.333 -133.333,133.333Zm-246.667,-133.333l246.667,0l0,-420l-246.667,0l0,420Z" style="fill:#3e4550;fill-rule:nonzero;"/><path d="M2786.67,826.667l-2240,-0c-146.667,-0 -266.667,126.666 -266.667,273.333l0,773.333c20,360 306.667,653.334 666.667,653.334c220,-0 413.333,-106.667 533.333,-273.334c46.667,-66.666 120,-100 186.667,-93.333c73.333,-0 140,33.333 186.666,93.333c120,166.667 313.334,273.334 533.334,273.334c353.333,-0 646.666,-286.667 666.666,-653.334l0,-773.333c0,-146.667 -120,-273.333 -266.666,-273.333Z" style="fill:#fff;fill-rule:nonzero;"/><path d="M1386.67,900l-566.667,1480c93.333,86.667 253.333,66.667 346.667,80l600,-1560l-380,0Zm-580,0l-400,1093.33c40,126.667 113.333,226.667 180,300l513.333,-1366.67l-293.333,-26.667Z" style="fill:#4c66af;fill-rule:nonzero;"/><path d="M2786.67,826.667l-2240,-0c-146.667,-0 -266.667,126.666 -266.667,273.333l0,773.333c20,360 306.667,653.334 666.667,653.334c220,-0 413.333,-106.667 533.333,-273.334c46.667,-66.666 113.333,-93.333 186.667,-93.333l13.333,-0c66.667,-0 140,33.333 186.667,93.333c120,166.667 313.333,273.334 533.333,273.334c353.333,-0 646.667,-286.667 666.667,-653.334l-0,-773.333c-13.334,-146.667 -133.334,-273.333 -280,-273.333Zm-1493.33,133.333l-520,1400c-46.666,-20 -93.333,-40 -133.333,-73.333l493.333,-1333.33l160,0l0,6.667Zm-880,140c0,-80 60,-140 133.334,-140l186.666,-0l-320,906.667l0,-766.667Zm53.334,980l406.666,-1120l113.334,-0l-453.334,1233.33c-26.666,-33.333 -46.666,-73.333 -66.666,-113.333Zm440,313.333l533.333,-1433.33l233.333,-0l-513.333,1386.67c-66.667,33.333 -140,46.666 -213.333,46.666l-40,0Zm2013.33,-553.333l0,33.333c-13.333,293.334 -246.667,526.667 -533.333,526.667c-166.667,-0 -320,-80 -426.667,-220c-66.667,-93.333 -180,-153.333 -293.333,-153.333l-13.334,-0c-113.333,-0 -213.333,53.333 -286.666,140l440,-1200l973.333,-0c73.333,-0 133.333,66.666 133.333,140l0,733.333l6.667,-0Z" style="fill:#3e4550;fill-rule:nonzero;"/></svg>